<svg id="Layer_1" data-name="Layer 1" xmlns="http://www.w3.org/2000/svg" viewBox="0 0 161.4 43.34"><defs><style>.cls-1{fill:#fff;}.cls-2{fill:#a02b31;}</style></defs><title>logotype</title><path class="cls-1" d="M52.2,8.83a3.49,3.49,0,0,0-2.4-1H41.5a8.33,8.33,0,0,0-1.5.4,4,4,0,0,0-1.6,1.2l-2.2,2.7L34.6,14a21,21,0,0,0-1.4,1.7,13.06,13.06,0,0,0-1.2,1.5,17.41,17.41,0,0,1-1.2,1.4,2.19,2.19,0,0,0-.3.5,1.45,1.45,0,0,0-.2.7,1.49,1.49,0,0,0,.2.9,2.35,2.35,0,0,0,.8,1l.6.6,6.6,6a6.24,6.24,0,0,0,1.6,1,4.64,4.64,0,0,0,1.9.4h1.6c.2,0,.3,0,.4-.1l3.1-3.5a.44.44,0,0,0,.1-.5.46.46,0,0,0-.5-.3H42c-.1,0-.2-.1-.3-.1s-.2-.1-.3-.1l-6-5.4,6.3-7.5L42,12h6.8v16.9a.63.63,0,0,0,.7.7h3c.5,0,.7-.2.7-.7V11.13A3.73,3.73,0,0,0,52.2,8.83Z" transform="translate(0 -3.33)"/><path class="cls-1" d="M65.7,12.13H59.9v14.2c0,.1,0,.1.1.3s.1.2.1.3l4.2,4.2a.56.56,0,0,1,0,.9l-2.1,2.1a.56.56,0,0,1-.9,0l-4.2-4.2a6.24,6.24,0,0,1-1-1.6,4.64,4.64,0,0,1-.4-1.9V3.93a.52.52,0,0,1,.2-.4.76.76,0,0,1,.4-.2h3.1a.52.52,0,0,1,.4.2.76.76,0,0,1,.2.4v3.9h5.8a.53.53,0,0,1,.6.6v3.2A.67.67,0,0,1,65.7,12.13Z" transform="translate(0 -3.33)"/><path class="cls-1" d="M86.6,7.83a1.42,1.42,0,0,1,.6.2.73.73,0,0,1,.2.6v12.1a2.77,2.77,0,0,1-.1.9l-.3.9c-.1.3-.3.6-.4.9a4.23,4.23,0,0,1-.5.7l-3.6,4a4.18,4.18,0,0,1-1.7,1.1,4.64,4.64,0,0,1-1.9.4H71.5a3.42,3.42,0,0,1-3.4-3.3V8.63a1.42,1.42,0,0,1,.2-.6.73.73,0,0,1,.6-.2h2.7a1.42,1.42,0,0,1,.6.2.73.73,0,0,1,.2.6v16.8h6.4c.1,0,.1,0,.2-.1a.31.31,0,0,1,.2-.1l3.6-3.9c.1-.1.1-.2.2-.3a.37.37,0,0,0,.1-.3V8.63a1.42,1.42,0,0,1,.2-.6.73.73,0,0,1,.6-.2Z" transform="translate(0 -3.33)"/><path class="cls-1" d="M139.6,16a1.42,1.42,0,0,1,.6.2.73.73,0,0,1,.2.6v12.1a2.77,2.77,0,0,1-.1.9l-.3.9c-.1.3-.3.6-.4.9a4.23,4.23,0,0,1-.5.7l-3.6,4a4.18,4.18,0,0,1-1.7,1.1,4.64,4.64,0,0,1-1.9.4h-7.4a3.42,3.42,0,0,1-3.4-3.3V16.83a1.42,1.42,0,0,1,.2-.6.73.73,0,0,1,.6-.2h2.7a1.42,1.42,0,0,1,.6.2.73.73,0,0,1,.2.6v16.8h6.4c.1,0,.1,0,.2-.1a.35.35,0,0,0,.2-.1l3.6-3.9c.1-.1.1-.2.2-.3a.37.37,0,0,0,.1-.3V16.83a1.42,1.42,0,0,1,.2-.6.73.73,0,0,1,.6-.2Z" transform="translate(0 -3.33)"/><path class="cls-1" d="M158,16a3.25,3.25,0,0,1,2.4,1,3.31,3.31,0,0,1,1,2.4v9.9a5.49,5.49,0,0,1-.5,1.7,2.84,2.84,0,0,1-.9,1.4l-3.7,4a3.81,3.81,0,0,1-1.6,1.1,4.64,4.64,0,0,1-1.9.4h-6.9a3.25,3.25,0,0,1-2.4-1,3.31,3.31,0,0,1-1-2.4V19.33a3.25,3.25,0,0,1,1-2.4,3.31,3.31,0,0,1,2.4-1H158Zm-1.2,13.4c.1-.1.1-.1.1-.3s.1-.2.1-.3v-8.5H146.8v13.3h5.9c.1,0,.1-.1.2-.1a.35.35,0,0,0,.2-.1Z" transform="translate(0 -3.33)"/><path class="cls-1" d="M33.4,12.13,37,7.83H25.8V3.93a.52.52,0,0,0-.2-.4.76.76,0,0,0-.4-.2H22.1a.71.71,0,0,0-.6.6v4H3.4a3.25,3.25,0,0,0-2.4,1,3,3,0,0,0-1,2.4v5.8a3.25,3.25,0,0,0,1,2.4,3.49,3.49,0,0,0,2.4,1H15.2v.4a.37.37,0,0,1-.1.3c0,.1-.1.2-.1.3l-3.6,3.9c-.1.1-.1.1-.2.1a.35.35,0,0,0-.2.1H2.1a.76.76,0,0,0-.5.2.76.76,0,0,0-.2.5v3a.76.76,0,0,0,.2.5.76.76,0,0,0,.5.2H11a4.33,4.33,0,0,0,1.9-.4,6.45,6.45,0,0,0,1.6-1.1l3.6-4a6.24,6.24,0,0,0,1-1.6,4.64,4.64,0,0,0,.4-1.9v-1.6h0a3.47,3.47,0,0,0-1-2.2,3.17,3.17,0,0,0-2.3-.9H4.4v-4.1h17v14.2a4.64,4.64,0,0,0,.4,1.9,4.88,4.88,0,0,0,1,1.6l4.2,4.2a.56.56,0,0,0,.9,0L30,32a.56.56,0,0,0,0-.9l-4-4.2c-.1-.1-.1-.1-.1-.3s-.1-.2-.1-.3V12.13Z" transform="translate(0 -3.33)"/><path class="cls-2" d="M117.7,16.53a3.1,3.1,0,0,0-2.4-1H94v-3.8h12.5a.68.68,0,0,0,.7-.7V8a.68.68,0,0,0-.7-.7H93.1a3.25,3.25,0,0,0-2.4,1,3,3,0,0,0-1,2.4v5.8a3.25,3.25,0,0,0,1,2.4,3.49,3.49,0,0,0,2.4,1h8.6L97.4,25H88.2a.37.37,0,0,0-.3.1l-3.1,3.5a.44.44,0,0,0-.1.5c.1.2.2.3.4.3H96.4l.2.2a4.35,4.35,0,0,0,.7.6l6.6,6a6.24,6.24,0,0,0,1.6,1,4.64,4.64,0,0,0,1.9.4H109a.37.37,0,0,0,.3-.1l3.1-3.5a.44.44,0,0,0,.1-.5c-.1-.2-.2-.3-.4-.3h-4.7c-.1,0-.2-.1-.3-.1s-.2-.1-.3-.1l-4-3.6-2-1.8,2.1-2.5,4.2-4.9c.1,0,.1-.1.2-.1s.1-.1.2-.1h6.8v26.2a.52.52,0,0,0,.2.4c.2.1.3,0,.4-.1l3.5-3.2c.1-.1.2-.2.2-.3V18.93A3.24,3.24,0,0,0,117.7,16.53Z" transform="translate(0 -3.33)"/></svg>