<?xml version="1.0" encoding="utf-8"?>
<!-- Generator: Adobe Illustrator 21.0.2, SVG Export Plug-In . SVG Version: 6.00 Build 0)  -->
<svg version="1.1" id="Layer_1" xmlns="http://www.w3.org/2000/svg" xmlns:xlink="http://www.w3.org/1999/xlink" x="0px" y="0px"
	 viewBox="0 0 300 50" style="enable-background:new 0 0 300 50;" xml:space="preserve">
<style type="text/css">
	.st0{fill:#FFFFFF;}
	.st1{fill:#A02B31;}
</style>
<g>
	<path class="st0" d="M121.5,8.9c-0.7-0.6-1.4-1-2.4-1h-7.8c-0.2,0-0.3,0-0.5,0c-0.5,0.1-1,0.2-1.5,0.4c-0.7,0.3-1.2,0.7-1.6,1.2
		l-2.2,2.7l-1.6,1.9c-0.5,0.6-1,1.1-1.4,1.7c-0.5,0.6-0.9,1-1.2,1.5c-0.4,0.5-0.8,1-1.2,1.4c-0.1,0.1-0.2,0.3-0.3,0.5
		c-0.1,0.2-0.2,0.4-0.2,0.7c0,0.3,0,0.6,0.2,0.9c0.1,0.3,0.4,0.7,0.8,1c0.1,0.1,0.3,0.3,0.6,0.6l6.6,6c0.4,0.4,1,0.7,1.6,1
		c0.7,0.3,1.3,0.4,1.9,0.4h1.6c0.2,0,0.3,0,0.4-0.1l3.1-3.5c0.1-0.1,0.2-0.3,0.1-0.5c-0.1-0.2-0.2-0.3-0.5-0.3h-4.7
		c-0.1,0-0.2-0.1-0.3-0.1c-0.1,0-0.2-0.1-0.3-0.1l-6-5.4l6.3-7.5l0.3-0.2h6.8v16.9c0,0.4,0.2,0.7,0.7,0.7h3c0.5,0,0.7-0.2,0.7-0.7
		V11.2C122.4,10.3,122.1,9.5,121.5,8.9z"/>
	<path class="st0" d="M135,12.2h-5.8v14.2c0,0.1,0,0.1,0.1,0.3c0,0.1,0.1,0.2,0.1,0.3l4.2,4.2c0.3,0.3,0.3,0.6,0,0.9l-2.1,2.1
		c-0.3,0.3-0.6,0.3-0.9,0l-4.2-4.2c-0.4-0.4-0.7-1-1-1.6c-0.3-0.7-0.4-1.3-0.4-1.9V4c0-0.2,0.1-0.3,0.2-0.4c0.1-0.1,0.3-0.2,0.4-0.2
		h3.1c0.2,0,0.3,0.1,0.4,0.2c0.1,0.1,0.2,0.3,0.2,0.4v3.9h5.8c0.4,0,0.6,0.2,0.6,0.6v3.2C135.6,12,135.4,12.2,135,12.2z"/>
	<path class="st0" d="M155.9,7.9c0.2,0,0.4,0.1,0.6,0.2c0.2,0.2,0.2,0.4,0.2,0.6v12.1c0,0.3,0,0.6-0.1,0.9c-0.1,0.3-0.2,0.6-0.3,0.9
		c-0.1,0.3-0.3,0.6-0.4,0.9c-0.2,0.3-0.3,0.5-0.5,0.7l-3.6,4c-0.4,0.5-1,0.8-1.7,1.1c-0.7,0.3-1.3,0.4-1.9,0.4h-7.4
		c-0.9,0-1.7-0.3-2.4-1c-0.6-0.6-1-1.4-1-2.3V8.7c0-0.2,0.1-0.4,0.2-0.6c0.2-0.2,0.4-0.2,0.6-0.2h2.7c0.2,0,0.4,0.1,0.6,0.2
		c0.2,0.2,0.2,0.4,0.2,0.6v16.8h6.4c0.1,0,0.1,0,0.2-0.1s0.2-0.1,0.2-0.1l3.6-3.9c0.1-0.1,0.1-0.2,0.2-0.3c0.1-0.1,0.1-0.2,0.1-0.3
		V8.7c0-0.2,0.1-0.4,0.2-0.6c0.2-0.2,0.4-0.2,0.6-0.2H155.9z"/>
	<path class="st0" d="M208.9,16.1c0.2,0,0.4,0.1,0.6,0.2c0.2,0.2,0.2,0.4,0.2,0.6V29c0,0.3,0,0.6-0.1,0.9c-0.1,0.3-0.2,0.6-0.3,0.9
		c-0.1,0.3-0.3,0.6-0.4,0.9c-0.2,0.3-0.3,0.5-0.5,0.7l-3.6,4c-0.4,0.5-1,0.8-1.7,1.1c-0.7,0.3-1.3,0.4-1.9,0.4h-7.4
		c-0.9,0-1.7-0.3-2.4-1c-0.6-0.6-1-1.4-1-2.3V16.9c0-0.2,0.1-0.4,0.2-0.6c0.2-0.2,0.4-0.2,0.6-0.2h2.7c0.2,0,0.4,0.1,0.6,0.2
		c0.2,0.2,0.2,0.4,0.2,0.6v16.8h6.4c0.1,0,0.1,0,0.2-0.1c0.1,0,0.2-0.1,0.2-0.1l3.6-3.9c0.1-0.1,0.1-0.2,0.2-0.3
		c0.1-0.1,0.1-0.2,0.1-0.3V16.9c0-0.2,0.1-0.4,0.2-0.6c0.2-0.2,0.4-0.2,0.6-0.2H208.9z"/>
	<path class="st0" d="M227.3,16.1c0.9,0,1.7,0.3,2.4,1c0.6,0.6,1,1.4,1,2.4V29l0,0.4c-0.1,0.6-0.2,1.1-0.5,1.7
		c-0.2,0.6-0.5,1.1-0.9,1.4l-3.7,4c-0.4,0.5-0.9,0.8-1.6,1.1c-0.7,0.3-1.3,0.4-1.9,0.4h-6.9c-0.9,0-1.7-0.3-2.4-1
		c-0.6-0.6-1-1.4-1-2.4V19.4c0-0.9,0.3-1.7,1-2.4c0.6-0.6,1.4-1,2.4-1H227.3z M226.1,29.5c0.1-0.1,0.1-0.1,0.1-0.3
		c0-0.1,0.1-0.2,0.1-0.3v-8.5h-10.2v13.3h5.9c0.1,0,0.1-0.1,0.2-0.1c0.1,0,0.2-0.1,0.2-0.1L226.1,29.5z"/>
	<path class="st0" d="M102.7,12.2l3.6-4.3H95.1V4c0-0.2-0.1-0.3-0.2-0.4c-0.1-0.1-0.3-0.2-0.4-0.2h-3.1c-0.1,0-0.3,0.1-0.4,0.2
		c-0.1,0.1-0.2,0.3-0.2,0.4v4H72.7c-0.9,0-1.7,0.3-2.4,1c-0.7,0.6-1,1.4-1,2.4v5.8c0,0.9,0.3,1.7,1,2.4c0.7,0.6,1.4,1,2.4,1h11.8
		v0.2v0.2c0,0.1,0,0.2-0.1,0.3c0,0.1-0.1,0.2-0.1,0.3l-3.6,3.9c-0.1,0.1-0.1,0.1-0.2,0.1c-0.1,0-0.2,0.1-0.2,0.1h-8.9
		c-0.2,0-0.4,0.1-0.5,0.2c-0.1,0.1-0.2,0.3-0.2,0.5v3c0,0.2,0.1,0.4,0.2,0.5c0.1,0.1,0.3,0.2,0.5,0.2h8.9c0.6,0,1.3-0.1,1.9-0.4
		c0.6-0.3,1.2-0.7,1.6-1.1l3.6-4c0.4-0.4,0.7-1,1-1.6c0.3-0.7,0.4-1.3,0.4-1.9v-0.2v-1.2v-0.2h0c-0.1-0.9-0.4-1.6-1-2.2
		c-0.6-0.6-1.4-0.9-2.3-0.9H73.7V14v-1.2v-0.5h14.7c0.1,0,1.2,0,2.3,0v14.2c0,0.6,0.1,1.2,0.4,1.9c0.3,0.7,0.6,1.2,1,1.6l4.2,4.2
		c0.3,0.3,0.6,0.3,0.9,0l2.1-2.1c0.3-0.3,0.3-0.6,0-0.9L95.3,27c-0.1-0.1-0.1-0.1-0.1-0.3c0-0.1-0.1-0.2-0.1-0.3V12.2H102.7z"/>
	<path class="st1" d="M187,16.6c-0.7-0.7-1.4-1-2.4-1h-2.7c-0.1,0-0.1,0-0.2,0h-18.4v-2.1v-1.2v-0.5h12.5c0.2,0,0.4-0.1,0.5-0.2
		c0.1-0.1,0.2-0.3,0.2-0.5V8.1c0-0.2-0.1-0.4-0.2-0.5c-0.1-0.1-0.3-0.2-0.5-0.2h-13.4c-0.9,0-1.7,0.3-2.4,1c-0.7,0.6-1,1.4-1,2.4
		v5.8c0,0.9,0.3,1.7,1,2.4c0.7,0.6,1.4,1,2.4,1h8.6l-4.3,5.1h-4.5h-4.1l0,0h-0.6c-0.1,0-0.2,0-0.3,0.1l-3.1,3.5
		c-0.1,0.1-0.2,0.3-0.1,0.5c0.1,0.2,0.2,0.3,0.4,0.3h0.7h3h4.1h3.5c0.1,0.1,0.1,0.1,0.2,0.2c0.2,0.2,0.4,0.4,0.7,0.6l6.6,6
		c0.4,0.4,1,0.7,1.6,1c0.7,0.3,1.3,0.4,1.9,0.4h1.6c0.1,0,0.2,0,0.3-0.1l3.1-3.5c0.1-0.1,0.2-0.3,0.1-0.5c-0.1-0.2-0.2-0.3-0.4-0.3
		h-4.7c-0.1,0-0.2-0.1-0.3-0.1c-0.1,0-0.2-0.1-0.3-0.1l-4-3.6l-2-1.8l2.1-2.5l4.2-4.9c0.1,0,0.1-0.1,0.2-0.1c0.1,0,0.1-0.1,0.2-0.1
		h3.9h2.9v3.9v22.3c0,0.2,0.1,0.3,0.2,0.4c0.2,0.1,0.3,0,0.4-0.1l3.5-3.2c0.1-0.1,0.2-0.2,0.2-0.3V19C187.9,18,187.6,17.2,187,16.6z
		"/>
</g>
</svg>
