<svg id="Layer_1" data-name="Layer 1" xmlns="http://www.w3.org/2000/svg" viewBox="0 0 121.71 141.07"><defs><style>.cls-1{fill:#fff;}</style></defs><title>logo</title><path class="cls-1" d="M120.68,43.31a11.12,11.12,0,0,0-8.61-3.59H35.69V26.1H80.52A2.45,2.45,0,0,0,83,23.59V12.83A2.74,2.74,0,0,0,82.31,11a2.74,2.74,0,0,0-1.79-.72H32.46a11.65,11.65,0,0,0-8.61,3.59c-2.51,2.15-3.59,5-3.59,8.61v20.8a11.65,11.65,0,0,0,3.59,8.61c2.51,2.15,5,3.59,8.61,3.59H63.3L47.88,73.79h-33a1.32,1.32,0,0,0-1.08.36L2.7,86.7a1.58,1.58,0,0,0-.36,1.79c.36.72.72,1.08,1.43,1.08H44.3l.72.72a15.6,15.6,0,0,0,2.51,2.15L71.19,114a22.38,22.38,0,0,0,5.74,3.59A16.63,16.63,0,0,0,83.74,119h5.74a1.32,1.32,0,0,0,1.08-.36l11.12-12.55a1.58,1.58,0,0,0,.36-1.79c-.36-.72-.72-1.08-1.43-1.08H83.74c-.36,0-.72-.36-1.08-.36s-.72-.36-1.08-.36L67.25,89.57l-7.17-6.45,7.53-9L82.67,56.58c.36,0,.36-.36.72-.36s.36-.36.72-.36h24.38v94a1.86,1.86,0,0,0,.72,1.43c.72.36,1.08,0,1.43-.36l12.55-11.47c.36-.36.72-.72.72-1.08V51.92A11.63,11.63,0,0,0,120.68,43.31Z" transform="translate(-2.19 -10.32)"/></svg>